# xmcd CD database file
#
# Track frame offsets:
#	150
#	19650
#	34185
#	58620
#	76200
#	99452
#	114517
#	146755
#	164170
#	184097
#	219795
#
# Disc length: 3184 seconds
#
# Revision: 0
# Processed by: cddbd v1.5.1PL0 Copyright (c) Steve Scherf et al.
# Submitted via: CDex 1.51
#
DISCID=910c6e0b
DTITLE=Richey, Kelly - Sister's Got A Problem
DYEAR=1994
DGENRE=Blues
TTITLE0=Travelin'
TTITLE1=Sister's Got A Problem
TTITLE2=CIty Between The Lines
TTITLE3=Just A Thing
TTITLE4=Ramblin' On My Mind
TTITLE5=The Blues Don't Lie
TTITLE6=Down By The River
TTITLE7=I Don't Feel Good
TTITLE8=Mean Old World
TTITLE9=All Along the Watchtower (Live)
TTITLE10=Serves Me-You Right To Suffer
EXTD=YEAR: 1994
EXTT0=
EXTT1=
EXTT2=
EXTT3=
EXTT4=
EXTT5=
EXTT6=
EXTT7=
EXTT8=
EXTT9=
EXTT10=
PLAYORDER=
